<svg xmlns="http://www.w3.org/2000/svg" width="736" height="402" fill="none" viewBox="0 0 736 402"><path fill="#146777" d="M115.516 157.048c-22.342-6.315-58.068-14.716-97.172-4.301-7.264 1.934-12.197 5.134-15.654 11.207-1.724 3.034-3.311 6.316-2.447 9.663.748 2.842 4.817 3.841 8.083 4.361 3.144.495 10.266.869 12.187-1.418 1-1.197 1.026-4.559-4.19-5.654-1.927-.404-7.168-.586-7.568-1.469 0 0 .182-.611 3.058-1.5 1.27-.393 10.59-4.225 36.056-3.402 30.283.974 56.734 8.057 84.707 19.057 27.371 10.763 58.129 30.229 76.17 53.406 6.824 8.769 15.295 23.177 16.413 35.308 2.704 29.462-26.108 54.324-84.607 52.33-9.998-.343-22.149-2.711-22.149-2.711l-1.214-56.879s24.753-.187 52.12 8.81c2.33.767 4.67 2.286 4.883 4.543.151 1.737-1.219 3.226-2.76 4.569-2.836 2.473-6.738 3.549-7.597 4.599-.622.757-.627 1.913.182 2.549 2.057 1.59 7.106 2.671 10.513 2.373 6.9-.611 11.49-4.594 14.957-9.814 3.695-5.563 5.798-19.709-13.86-28.73-25.41-11.667-58.62-9.471-58.62-9.471s-.171-7.713-.515-12.847c-.571-8.421-2.907-24.974-10.59-29.745-1.405-.863-3.129-.964-4.099.343-1.491 1.944-2.957 9.35-3.28 11.273-2.892 17.22-2.74 32.663-2.892 32.88a1.8 1.8 0 0 1-.298.277c-.303.192-18.667 2.383-36.394 10.051-7.077 3.06-17.196 8.583-20.265 15.691-3.958 9.172 3.003 19.213 14.755 30.33 9.953 9.415 24.627 19.325 35.5 24.454 2.77 1.307 6.025 2.918 6.025 2.918s.702 6.572 1.268 10.369c2.043 13.686 12.491 11.692 15.372 11.106 4.681-.954 5.58-4.064 6.227-7.668.354-1.969.208-4.816.208-4.816s7.076 1.63 11.828 2.493c13.819 2.55 28.832 2.989 41.843 1.217 52.038-7.103 65.15-31.587 69.295-38.125 7.203-11.368 22.483-43.041-23.545-90.056-10.514-10.743-40.908-40.326-101.944-57.576zM46.797 285.184c-1.89-1.949-3.346-4.059-2.901-6.608.424-2.459 5.247-4.63 7.683-5.346 23.474-6.912 43.37-7.265 43.37-7.265s-.187 8.411-.228 16.917c-.076 16.114.349 32.47.349 32.47s-26.477-7.703-48.273-30.173zm238.422-59.201c11.004-4.307 19.501-10.486 28.104-19.28 5.025-5.104 9.432-13.499 7.815-21.147-.809-3.801-2.548-6.422-5.727-9.158-1.582-1.358-5.207-3.276-8.153-3.862-.855-.171-1.765-.237-2.134-.474-.419-.268-.753-.818-1.162-1.328-1.926-2.443-5.752-4.781-8.502-5.725-8.442-2.918-19.704-.717-27.392 2.519-8.128 3.438-15.624 8.477-21.321 14.575-14.947 16.003-8.38 28.679-7.051 31.042 1.132 1.999 3.23 4.155 3.69 6.245.278 1.241.03 2.867.081 4.336.106 3.367 1.572 6.84 4.104 9.077 1.815 1.595 4.423 2.07 7.047-1.903.879-1.333 2.345-4.044 2.345-4.044s3.048 1.762 10.413 2.277c5.489.383 13.011-1.267 17.843-3.15m-35.262-19.34s-.51-1.066-.839-1.868c-2.265-5.624 2.735-11.965 7.299-15.852 8.886-7.562 16.448-7.381 16.448-7.381s-1.809 1.449-3.311 2.762c-12.97 11.333-19.597 22.339-19.597 22.339m19.451-.207c5.434-6.997 15.492-15.68 22.508-19.86 5.495-3.277 10.241-4.175 13.785-2.62 2.102.923 3.786 2.827 4.074 5.376.94 7.89-8.179 14.484-14.275 18.038-13.855 8.072-30.242 6.244-30.662 5.512-.06-.192 3.316-4.796 4.575-6.446zm329.877 42.88c-17.636-12.222-46.089 26.534-58.605 45.752-1.865-9.783 4.762-22.197 4.762-22.197s10.625-18.376 12.131-22.106c1.451-3.756 2.295-11.475.47-12.242-1.658-.763-4.519 1.711-4.519 1.711-23.863 21.39-27.199 45.122-27.199 45.122-2.255 12.777.379 21.753 4.251 28.033-13.264 28.225-19.754 52.845-18.026 67.399 1.608 11.081 9.559 19.093 14.381 20.784 4.873 2.03 5.737-3.821 5.737-3.821 3.948-30.108 10.843-50.236 19.057-70.131 24.874 5.709 43.592-18.477 50.218-30.032 3.898-6.937 5.995-16.2 5.995-24.914 0-9.925-2.734-19.133-8.653-23.363zm-16.211 47.994c-2.856 2.706-12.308 8.017-22.109 9.117 9.341-18.083 20.941-31.39 27.371-38.488 7.481-8.416 8.462-.772 8.462-.772 1.744 14.852-9.079 26.029-13.729 30.148zm-65.509 14.317c1.188-4.523-2.932-9.481-6.657-10.405-3.478-.717-30.172 4.281-33.362 5.139-3.432.919-1.9-2.302-1.9-2.302l4.124-13.938s25.476-.979 29.186-1.6c3.428-.616 3.635-3.034 3.635-3.034s.44-3.988.313-7.714c-.374-3.988-3.568-3.62-3.568-3.62-9.852-1.029-23.394.132-23.394.132l3.417-10.698s27.099-1.317 37.405-3.69c5.293-1.247 2.179-6.437 2.179-6.437-6.425-12.832-13.83-12.11-13.83-12.11-21.316-.712-52.291 4.932-55.668 6.603-3.159 1.433-2.815 3.811 1.305 8.996 4.422 5.462 11.863 4.952 11.863 4.952l-6.531 13.494c-5.332.374-7.162 2.035-7.162 2.035-3.074 3.276 1.167 12.959 1.167 12.959s-9.255 20.733-2.542 31.683c7.208 11.495 15.735 10.944 15.735 10.944 16.226 1.182 42.869-15.786 44.29-21.389zm-93.144-82.368s-3.776-1.762-4.731 1.999c-.96 3.721.465 7.689.465 7.689 9.397 31.839 11.53 50.649 11.53 50.649s.435 5.533-.642 5.841c-.753.57-1.592-.217-1.592-.217-1.077.04-11.379-17.22-11.379-17.22l-2.001-3.382c-11.338-18.27-18.207-24.495-18.207-24.495-1.608-1.504-5.732-5.638-10.873.061-5.146 5.735-9.169 24.156-10.792 41.472-1.38 17.28-.329 27.114 2.194 31.264 2.78 4.2 8.138 5.634 12.556 2.034 4.67-3.584 3.791-26.382 4.529-38.069.707-11.742 1.865-9.642 1.865-9.642 1.031-.278 6.379 10.465 6.379 10.465s14.093 28.816 22.943 33.081c8.968 4.256 16.181-2.594 18.91-9.011 2.775-6.462 7.491-27.836.47-51.523-7.066-23.681-21.629-30.996-21.629-30.996zm-146.43 60.978c-.364-7.88-1.305-28.003-3.508-37.095-.956-3.912-2.538-7.481-6.395-8.95a8 8 0 0 0-1.294-.374c-2.411-.469-3.796 2.853-4.448 4.503-1.905 4.887-3.28 16.559-3.654 20.199-1.133 11.025-2.053 37.155-.137 50.467.804 5.579 2.644 9.203 8.29 10.369 2.29.475 6.46.384 8.295-.787 1.602-.995 2.719-2.933 3.093-4.599 1.036-4.639.632-11.217.425-16.165-.248-5.841-.394-11.661-.662-17.568zm91.131-44.026c-12.182-6.467-32.234-6.482-44.638-4.942-12.814 1.585-29.964 5.578-37.289 16.094-2.795 4.013-4.433 10.182-3.149 15.205.728 2.792 2.74 4.912 5.661 6.432 5.192 2.701 22.509 3.276 30.228 4.104 7.274.777 20.669 2.07 28.054 5.149 0 0 6.99 2.434 6.945 6.422-.015 1.969-1.491 3.539-2.988 4.604-10.958 7.754-26.021 9.955-39.416 9.738-4.54-.061-8.28-.778-12.89-2.751-1.961-.859-4.509-2.424-4.165-5.099.551-4.286 5.454-5.341 9.351-4.973 2.174.197 5.014 1.126 7.148 1.959 8.593 3.387 12.51 6.24 20.072 5.089 2.82-.429 12.596-2.545 13.911-6.568.328-.98-.142-2.04-.865-2.772-1.031-1.055-6.91-3.337-8.507-3.917-5.757-2.045-16.67-3.918-22.736-4.15-7.956-.283-18.9 1.343-23.439 7.941-4.089 5.947-5.009 17.916 15.291 27.988 9.437 4.68 20.866 6.759 31.41 5.603 6.025-.691 23.378-3.387 29.939-17.174 3.528-7.416 3.184-17.321-.617-24.358-2.497-4.639-5.55-10.813-28.195-13.661-3.619-.454-30.258-3.533-32.704-3.917-1.355-.212-7.592-.949-5.404-3.327.617-.686 2.507-1.191 3.604-1.504 13.987-3.817 31.739-3.383 46.423-4.205 3.281-.202 10.741-.652 14.35-1.798 3.438-1.07 6.273-3.498 7.067-7.269.394-2.004-.566-2.948-2.447-3.948zm363.355 17.215h-41.853a304 304 0 0 0-4.378-42.744 5.03 5.03 0 0 0-4.953-4.165H670.01a3.528 3.528 0 0 0-3.462 4.18 283 283 0 0 1 4.691 42.729h-42.521a3.527 3.527 0 0 0-3.523 3.534v12.817a3.527 3.527 0 0 0 3.523 3.534h42.521a283.5 283.5 0 0 1-4.691 42.729 3.528 3.528 0 0 0 3.462 4.18h11.283a5.03 5.03 0 0 0 4.953-4.165 304 304 0 0 0 4.378-42.744h41.853a3.527 3.527 0 0 0 3.523-3.534V266.96a3.527 3.527 0 0 0-3.523-3.534M156.156 108.307c1.658 1.151 3.984.298 5.647-1.484 14.355-15.453 30.06-28.892 47.949-41.093C327.118-14.331 499.413-2.695 600.225 98.766c33.113 33.157 51.341 68.747 60.904 96.72a5.04 5.04 0 0 0 4.762 3.428h11.575c2.406 0 4.115-2.368 3.341-4.655-12.546-37.105-36.839-77.834-72.136-110.956C502.855-16.244 331.439-27.31 211.996 54.083c-19.542 13.181-38.957 30.063-56.017 49.357-1.683 1.904-1.112 3.973.172 4.867z"/></svg>