<svg xmlns="http://www.w3.org/2000/svg" xml:space="preserve" width="1544.98" height="528.342" viewBox="0 0 408.776 139.79"><defs><path id="a" d="M1743.9 496.1c-170.7 76.6-153.2 158.8-138.1 189.8 3.4 6.9 6.2 11.1 6.5 11.5 171.9 264.6 512.4 303.7 513.5 302.7-171.7-155.6-347.4-429.8-288.3-540.1-30.2 11.7-61.6 23.6-93.6 36.1"/><path id="b" d="M1743.9 496.1c-170.7 76.6-153.2 158.8-138.1 189.8 3.4 6.9 6.2 11.1 6.5 11.5 171.9 264.6 512.4 303.7 513.5 302.7-171.7-155.6-347.4-429.8-288.3-540.1-30.2 11.7-61.6 23.6-93.6 36.1"/><path id="c" d="M1743.9 496.1c-170.7 76.6-153.2 158.8-138.1 189.8 3.4 6.9 6.2 11.1 6.5 11.5 171.9 264.6 512.4 303.7 513.5 302.7-171.7-155.6-347.4-429.8-288.3-540.1-30.2 11.7-61.6 23.6-93.6 36.1"/><path id="d" d="M1743.9 496.1c-170.7 76.6-153.2 158.8-138.1 189.8 3.4 6.9 6.2 11.1 6.5 11.5 171.9 264.6 512.4 303.7 513.5 302.7-171.7-155.6-347.4-429.8-288.3-540.1-30.2 11.7-61.6 23.6-93.6 36.1"/><path id="e" d="M1743.9 496.1c-170.7 76.6-153.2 158.8-138.1 189.8 3.4 6.9 6.2 11.1 6.5 11.5 171.9 264.6 512.4 303.7 513.5 302.7-171.7-155.6-347.4-429.8-288.3-540.1-30.2 11.7-61.6 23.6-93.6 36.1"/><path id="f" d="M1743.9 496.1c-170.7 76.6-153.2 158.8-138.1 189.8 3.4 6.9 6.2 11.1 6.5 11.5 171.9 264.6 512.4 303.7 513.5 302.7-171.7-155.6-347.4-429.8-288.3-540.1-30.2 11.7-61.6 23.6-93.6 36.1"/><path id="g" d="M1743.9 496.1c-170.7 76.6-153.2 158.8-138.1 189.8 3.4 6.9 6.2 11.1 6.5 11.5 171.9 264.6 512.4 303.7 513.5 302.7-171.7-155.6-347.4-429.8-288.3-540.1-30.2 11.7-61.6 23.6-93.6 36.1"/><path id="h" d="M1743.9 496.1c-170.7 76.6-153.2 158.8-138.1 189.8 3.4 6.9 6.2 11.1 6.5 11.5 171.9 264.6 512.4 303.7 513.5 302.7-171.7-155.6-347.4-429.8-288.3-540.1-30.2 11.7-61.6 23.6-93.6 36.1"/><path id="i" d="M1743.9 496.1c-170.7 76.6-153.2 158.8-138.1 189.8 3.4 6.9 6.2 11.1 6.5 11.5 171.9 264.6 512.4 303.7 513.5 302.7-171.7-155.6-347.4-429.8-288.3-540.1-30.2 11.7-61.6 23.6-93.6 36.1"/><path id="j" d="M1743.9 496.1c-170.7 76.6-153.2 158.8-138.1 189.8 3.4 6.9 6.2 11.1 6.5 11.5 171.9 264.6 512.4 303.7 513.5 302.7-171.7-155.6-347.4-429.8-288.3-540.1-30.2 11.7-61.6 23.6-93.6 36.1"/><path id="k" d="M1743.9 496.1c-170.7 76.6-153.2 158.8-138.1 189.8 3.4 6.9 6.2 11.1 6.5 11.5 171.9 264.6 512.4 303.7 513.5 302.7-171.7-155.6-347.4-429.8-288.3-540.1-30.2 11.7-61.6 23.6-93.6 36.1"/><path id="l" d="M1743.9 496.1c-170.7 76.6-153.2 158.8-138.1 189.8 3.4 6.9 6.2 11.1 6.5 11.5 171.9 264.6 512.4 303.7 513.5 302.7-171.7-155.6-347.4-429.8-288.3-540.1-30.2 11.7-61.6 23.6-93.6 36.1"/><path id="m" d="M1743.9 496.1c-170.7 76.6-153.2 158.8-138.1 189.8 3.4 6.9 6.2 11.1 6.5 11.5 171.9 264.6 512.4 303.7 513.5 302.7-171.7-155.6-347.4-429.8-288.3-540.1-30.2 11.7-61.6 23.6-93.6 36.1"/><path id="n" d="M1743.9 496.1c-170.7 76.6-153.2 158.8-138.1 189.8 3.4 6.9 6.2 11.1 6.5 11.5 171.9 264.6 512.4 303.7 513.5 302.7-171.7-155.6-347.4-429.8-288.3-540.1-30.2 11.7-61.6 23.6-93.6 36.1"/><path id="o" d="M1743.9 496.1c-170.7 76.6-153.2 158.8-138.1 189.8 3.4 6.9 6.2 11.1 6.5 11.5 171.9 264.6 512.4 303.7 513.5 302.7-171.7-155.6-347.4-429.8-288.3-540.1-30.2 11.7-61.6 23.6-93.6 36.1"/><path id="p" d="M1743.9 496.1c-170.7 76.6-153.2 158.8-138.1 189.8 3.4 6.9 6.2 11.1 6.5 11.5 171.9 264.6 512.4 303.7 513.5 302.7-171.7-155.6-347.4-429.8-288.3-540.1-30.2 11.7-61.6 23.6-93.6 36.1"/><path id="q" d="M1743.9 496.1c-170.7 76.6-153.2 158.8-138.1 189.8 3.4 6.9 6.2 11.1 6.5 11.5 171.9 264.6 512.4 303.7 513.5 302.7-171.7-155.6-347.4-429.8-288.3-540.1-30.2 11.7-61.6 23.6-93.6 36.1"/><path id="r" d="M1743.9 496.1c-170.7 76.6-153.2 158.8-138.1 189.8 3.4 6.9 6.2 11.1 6.5 11.5 171.9 264.6 512.4 303.7 513.5 302.7-171.7-155.6-347.4-429.8-288.3-540.1-30.2 11.7-61.6 23.6-93.6 36.1"/></defs><path d="M161.899 117.569h12.473V78.374c0-10.968-.215-22.635-1.075-38.227h1.398l2.312 9.57 14.732 67.852h12.688l14.463-67.852 2.527-9.57h1.29c-.645 13.817-1.021 26.291-1.021 38.227v39.195h12.527V27.243h-21.29l-7.636 33.388c-3.225 13.872-5.537 31.077-6.882 39.84h-1.021c-.968-8.924-3.387-26.076-6.56-39.732l-7.85-33.496H161.9zM259.16 118.59c7.85 0 12.743-3.28 16.775-9.193h.592l.591 8.172h10.7V51.115h-14.195v53.389c-1.505 2.635-5 4.57-8.28 4.57-4.14 0-5.43-3.28-5.43-8.764V51.115h-14.14v49.84c0 10.807 3.118 17.636 13.387 17.636M315.894 118.967c13.011 0 20.27-5.753 20.27-17.528 0-10.699-5.377-15.054-18.173-23.764-5.86-3.871-9.033-6.29-9.033-11.99 0-4.247 2.635-6.505 7.42-6.505 5.215 0 6.99 3.44 7.204 13.226l11.614-.645c.967-15.323-4.517-21.883-18.603-21.883-13.334 0-19.732 5.753-19.732 17.151 0 10.538 5 15.324 14.409 21.883 8.334 5.753 12.904 9.355 12.904 14.14 0 3.925-2.742 6.775-7.527 6.775-5.485 0-8.603-4.732-8.065-11.882l-11.775.215c-1.828 13.764 4.624 20.807 19.087 20.807M351.556 42.674c4.84 0 7.098-1.613 7.098-8.28 0-6.237-2.42-8.173-7.098-8.173-4.73 0-7.043 1.72-7.043 8.173 0 6.667 2.205 8.28 7.043 8.28m-6.559 74.895H358.6V51.115h-13.603zM388.956 118.644c6.774 0 10.592-.806 13.656-3.71 4.57-3.978 6.452-10.161 6.13-20.592l-12.42-.645c0 11.398-1.828 15.7-7.151 15.7-5.86 0-6.828-6.398-6.828-18.012V77.621c0-12.688 1.236-18.71 6.935-18.71 4.732 0 6.614 3.979 6.614 16.667l12.312-.86c.86-9.086-.054-16.506-4.355-20.646-3.226-3.01-8.011-4.194-14.356-4.194-16.29 0-21.344 10.323-21.344 29.948v9.086c0 19.624 3.817 29.732 20.807 29.732"/><g stroke-width="5.377"><path fill="#f03" d="M69.895 139.79c38.582 0 69.895-31.313 69.895-69.895S108.477 0 69.895 0 0 31.313 0 69.895s31.313 69.895 69.895 69.895"/><path fill="none" stroke="var(--bg-card)" d="M110.22 69.895c0 22.28-18.045 40.324-40.325 40.324S29.571 92.175 29.571 69.895s18.045-40.324 40.324-40.324c22.28 0 40.324 18.045 40.324 40.324z"/><path fill="var(--bg-card)" d="M95.434 69.895 55.11 47.045v45.7z"/></g></svg>